<svg xmlns="http://www.w3.org/2000/svg" viewBox="0 0 64 64" fill="none">
  <defs>
    <linearGradient id="n-left-grad" x1="11" y1="8" x2="25" y2="56" gradientUnits="userSpaceOnUse">
      <stop offset="0%" stopColor="#38BDF8" />
      <stop offset="60%" stopColor="#0284C7" />
      <stop offset="100%" stopColor="#0369A1" />
    </linearGradient>

    <linearGradient id="n-right-grad" x1="39" y1="8" x2="53" y2="56" gradientUnits="userSpaceOnUse">
      <stop offset="0%" stopColor="#C084FC" />
      <stop offset="50%" stopColor="#818CF8" />
      <stop offset="100%" stopColor="#4F46E5" />
    </linearGradient>

    <linearGradient id="n-diag-grad" x1="11" y1="8" x2="53" y2="56" gradientUnits="userSpaceOnUse">
      <stop offset="0%" stopColor="#22D3EE" />
      <stop offset="35%" stopColor="#38BDF8" />
      <stop offset="70%" stopColor="#818CF8" />
      <stop offset="100%" stopColor="#A855F7" />
    </linearGradient>
  </defs>

  <!-- Left Vertical Stem -->
  <rect x="11" y="8" width="14" height="48" rx="4.5" fill="url(#n-left-grad)" />

  <!-- Right Vertical Stem -->
  <rect x="39" y="8" width="14" height="48" rx="4.5" fill="url(#n-right-grad)" />

  <!-- Diagonal Fold Ribbon -->
  <path
    d="M 11 12.5 C 11 10 13 8 15.5 8 L 24.5 8 C 25.8 8 27.2 8.8 28 9.9 L 52.5 50.8 C 53.5 52.4 52.6 54.6 50.7 55.4 C 49.9 55.8 49 56 48.2 56 L 39.5 56 C 38.2 56 36.8 55.2 36 54.1 L 11.5 13.2 C 11.2 12.8 11 12.2 11 11.5 Z"
    fill="url(#n-diag-grad)"
  />

  <!-- Origin & Route Nodes -->
  <circle cx="18" cy="14" r="2.5" fill="#FFFFFF" />
  <circle cx="46" cy="50" r="2.5" fill="#FFFFFF" />
  <polygon points="32,29.5 34.5,32 32,34.5 29.5,32" fill="#FFFFFF" />
</svg>